<?xml version="1.0" encoding="UTF-8"?>
<svg width="480" height="480" version="1.1" viewBox="0 0 127 127" xmlns="http://www.w3.org/2000/svg" xmlns:cc="http://creativecommons.org/ns#" xmlns:dc="http://purl.org/dc/elements/1.1/" xmlns:rdf="http://www.w3.org/1999/02/22-rdf-syntax-ns#">
 <metadata>
  <rdf:RDF>
   <cc:Work rdf:about="">
    <dc:format>image/svg+xml</dc:format>
    <dc:type rdf:resource="http://purl.org/dc/dcmitype/StillImage"/>
    <dc:title/>
   </cc:Work>
  </rdf:RDF>
 </metadata>
 <g fill-rule="evenodd">
  <path d="m64.752 68.188 37.794 12.253v22.002l-37.794-12.253z" points="102.54598,80.440609 102.54598,102.4431 64.751558,90.190256 64.751558,68.187767 " fill="#e9e9ff"/>
  <path d="m26.834 80.48v22.002l37.917-12.293v-22.002z" points="26.834404,102.48289 64.751558,90.190256 64.751558,68.187767 26.834404,80.480399 " fill="#353564"/>
  <path d="m26.834 102.48 37.794 12.253 37.917-12.293-37.794-12.253z" points="64.628823,114.73573 102.54598,102.4431 64.751558,90.190256 26.834404,102.48289 " fill="#afafde"/>
  <path d="m26.834 80.48 37.794 12.253 37.917-12.293-37.794-12.253z" points="64.628823,92.733241 102.54598,80.440609 64.751558,68.187767 26.834404,80.480399 " fill="#dee6f9"/>
  <path d="m64.629 92.733v22.002l37.917-12.293v-22.002z" points="64.628823,114.73573 102.54598,102.4431 102.54598,80.440609 64.628823,92.733241 " fill="#0547b2"/>
  <path d="m26.834 80.48 37.794 12.253v22.002l-37.794-12.253z" points="64.628823,92.733241 64.628823,114.73573 26.834404,102.48289 26.834404,80.480399 " fill="#669df6"/>
  <path d="m64.752 40.995 37.794 12.253v22.002l-37.794-12.253z" points="102.54598,53.248238 102.54598,75.250727 64.751558,62.997885 64.751558,40.995396 " fill="#e9e9ff"/>
  <path d="m26.834 53.288v22.002l37.917-12.293v-22.002z" points="26.834404,75.290517 64.751558,62.997885 64.751558,40.995396 26.834404,53.288028 " fill="#353564"/>
  <path d="m26.834 75.291 37.794 12.253 37.917-12.293-37.794-12.253z" points="64.628823,87.543359 102.54598,75.250727 64.751558,62.997885 26.834404,75.290517 " fill="#afafde"/>
  <path d="m26.834 53.288 37.794 12.253 37.917-12.293-37.794-12.253z" points="64.628823,65.54087 102.54598,53.248238 64.751558,40.995396 26.834404,53.288028 " fill="#dee6f9"/>
  <path d="m64.629 65.541v22.002l37.917-12.293v-22.002z" points="64.628823,87.543359 102.54598,75.250727 102.54598,53.248238 64.628823,65.54087 " fill="#0547b2"/>
  <path d="m26.834 53.288 37.794 12.253v22.002l-37.794-12.253z" points="64.628823,65.54087 64.628823,87.543359 26.834404,75.290517 26.834404,53.288028 " fill="#669df6"/>
  <path d="m64.752 14.286 37.794 12.253v22.002l-37.794-12.253z" points="102.54598,26.539306 102.54598,48.541795 64.751558,36.288953 64.751558,14.286464 " fill="#e9e9ff"/>
  <path d="m26.834 26.579v22.002l37.917-12.293v-22.002z" points="26.834404,48.581585 64.751558,36.288953 64.751558,14.286464 26.834404,26.579096 " fill="#353564"/>
  <path d="m26.834 48.582 37.794 12.253 37.917-12.293-37.794-12.253z" points="64.628823,60.834427 102.54598,48.541795 64.751558,36.288953 26.834404,48.581585 " fill="#afafde"/>
  <path d="m26.834 26.579 37.794 12.253 37.917-12.293-37.794-12.253z" points="64.628823,38.831938 102.54598,26.539306 64.751558,14.286464 26.834404,26.579096 " fill="#dee6f9"/>
  <path d="m64.629 38.832v22.002l37.917-12.293v-22.002z" points="64.628823,60.834427 102.54598,48.541795 102.54598,26.539306 64.628823,38.831938 " fill="#0547b2"/>
  <path d="m26.834 26.579 37.794 12.253v22.002l-37.794-12.253z" points="64.628823,38.831938 64.628823,60.834427 26.834404,48.581585 26.834404,26.579096 " fill="#669df6"/>
 </g>
 <g transform="translate(-84.961 17.243)">
  <path d="m194.91 20.397a57.734 26.21 0 0 1 3.8906 30.895 57.734 26.21 0 0 1-63.674 11.045 57.734 26.21 0 0 1-42.481-24.201" fill="none" stroke="#00d" stroke-width="2.0196"/>
  <circle cx="171.25" cy="60.696" r="10.771" fill="#00d"/>
 </g>
 <g transform="translate(-21.268 40.764)">
  <path d="m129.63-4.7112a57.734 26.21 0 0 1 3.8906 30.895 57.734 26.21 0 0 1-63.674 11.045 57.734 26.21 0 0 1-42.481-24.201" fill="none" stroke="#dcf666" stroke-width="2.0196"/>
  <circle cx="105.97" cy="35.588" r="10.771" fill="#dcf666"/>
 </g>
</svg>
